<svg width="32" height="32" viewBox="0 0 32 32" fill="none" xmlns="http://www.w3.org/2000/svg">
  <defs>
    <linearGradient id="gradient1" x1="0%" y1="0%" x2="100%" y2="100%">
      <stop offset="0%" style="stop-color:#22c55e;stop-opacity:1" />
      <stop offset="100%" style="stop-color:#16a34a;stop-opacity:1" />
    </linearGradient>
    <linearGradient id="gradient2" x1="0%" y1="0%" x2="100%" y2="100%">
      <stop offset="0%" style="stop-color:#f97316;stop-opacity:1" />
      <stop offset="100%" style="stop-color:#ea580c;stop-opacity:1" />
    </linearGradient>
  </defs>
  
  <!-- Background circle -->
  <circle cx="16" cy="16" r="15" fill="url(#gradient1)" stroke="#ffffff" stroke-width="2"/>
  
  <!-- Apple shape -->
  <path d="M16 6c-3.5 0-6 2.5-6 6 0 4 2.5 8 6 8s6-4 6-8c0-3.5-2.5-6-6-6z" fill="#ffffff" opacity="0.9"/>
  
  <!-- Apple leaf -->
  <path d="M16 6c0-1 1-2 2-2s1.5 0.5 1.5 1.5c0 0.5-0.5 1-1 1-0.5 0-1-0.5-1.5-0.5z" fill="url(#gradient2)"/>
  
  <!-- Nutrition symbols -->
  <circle cx="13" cy="12" r="1" fill="url(#gradient2)" opacity="0.8"/>
  <circle cx="19" cy="14" r="1" fill="url(#gradient2)" opacity="0.8"/>
  <circle cx="16" cy="17" r="1" fill="url(#gradient2)" opacity="0.8"/>
</svg>
